# xmcd CD database file
#
# Track frame offsets:
#	150
#	18935
#	37985
#	59349
#	78507
#	98329
#	116985
#	137533
#	151320
#	171861
#	191701
#	206422
#
# Disc length: 3004 seconds
#
# Revision: 0
# Processed by: cddbd v1.4PL0 Copyright (c) Steve Scherf et al.
# Submitted via: CDex 1.50Beta6
#
DISCID=950bba0c
DTITLE=Bill Thomas - ain't halfsteppin'
DYEAR=2001
DGENRE=Blues
TTITLE0=i know you lied
TTITLE1=looka here
TTITLE2=high flyin' bird
TTITLE3=francine
TTITLE4=ain't halsteppin'
TTITLE5=vero
TTITLE6=keep it
TTITLE7=check it out
TTITLE8=highway
TTITLE9=show me all the love
TTITLE10=earth and sky
TTITLE11=other side of hollywood
EXTD=YEAR: 2001
EXTT0=
EXTT1=
EXTT2=
EXTT3=
EXTT4=
EXTT5=
EXTT6=
EXTT7=
EXTT8=
EXTT9=
EXTT10=
EXTT11=
PLAYORDER=
